<?xml version="1.0" encoding="UTF-8" standalone="no"?>
<!-- Created with Inkscape (http://www.inkscape.org/) -->

<svg
   width="180.22816mm"
   height="63.620796mm"
   viewBox="0 0 180.22816 63.620796"
   version="1.1"
   id="svg1"
   xmlns:xlink="http://www.w3.org/1999/xlink"
   xmlns="http://www.w3.org/2000/svg"
   xmlns:svg="http://www.w3.org/2000/svg">
  <defs
     id="defs1">
    <linearGradient
       xlink:href="#linearGradient134"
       id="linearGradient1035"
       gradientUnits="userSpaceOnUse"
       x1="607.5777"
       y1="14832.971"
       x2="642.57043"
       y2="14528.031" />
    <linearGradient
       id="linearGradient134">
      <stop
         style="stop-color:#18d3ee;stop-opacity:1;"
         offset="0"
         id="stop134" />
      <stop
         style="stop-color:#5d72e2;stop-opacity:1;"
         offset="0.47940996"
         id="stop136" />
      <stop
         style="stop-color:#7511d6;stop-opacity:1;"
         offset="1"
         id="stop135" />
    </linearGradient>
    <linearGradient
       xlink:href="#linearGradient134"
       id="linearGradient1026"
       gradientUnits="userSpaceOnUse"
       gradientTransform="translate(2.4833738)"
       x1="607.5777"
       y1="14832.971"
       x2="642.57043"
       y2="14528.031" />
    <linearGradient
       xlink:href="#linearGradient134"
       id="linearGradient1028"
       gradientUnits="userSpaceOnUse"
       gradientTransform="translate(3.3093851,9.64e-4)"
       x1="607.5777"
       y1="14832.971"
       x2="642.57043"
       y2="14528.031" />
    <linearGradient
       xlink:href="#linearGradient134"
       id="linearGradient1029"
       gradientUnits="userSpaceOnUse"
       gradientTransform="translate(56.599876,-43.720046)"
       x1="607.5777"
       y1="14832.971"
       x2="642.57043"
       y2="14528.031" />
    <linearGradient
       xlink:href="#linearGradient134"
       id="linearGradient1030"
       gradientUnits="userSpaceOnUse"
       gradientTransform="translate(57.440557,-43.985372)"
       x1="607.5777"
       y1="14832.971"
       x2="642.57043"
       y2="14528.031" />
    <linearGradient
       xlink:href="#linearGradient134"
       id="linearGradient1032"
       gradientUnits="userSpaceOnUse"
       gradientTransform="translate(58.177127,-19.49934)"
       x1="607.5777"
       y1="14832.971"
       x2="642.57043"
       y2="14528.031" />
    <linearGradient
       xlink:href="#linearGradient134"
       id="linearGradient1033"
       gradientUnits="userSpaceOnUse"
       gradientTransform="translate(2)"
       x1="607.5777"
       y1="14832.971"
       x2="642.57043"
       y2="14528.031" />
    <linearGradient
       xlink:href="#linearGradient134"
       id="linearGradient1"
       gradientUnits="userSpaceOnUse"
       x1="607.5777"
       y1="14832.971"
       x2="642.57043"
       y2="14528.031" />
    <linearGradient
       xlink:href="#linearGradient134"
       id="linearGradient2"
       gradientUnits="userSpaceOnUse"
       x1="607.5777"
       y1="14832.971"
       x2="642.57043"
       y2="14528.031" />
    <linearGradient
       xlink:href="#linearGradient134"
       id="linearGradient3"
       gradientUnits="userSpaceOnUse"
       x1="607.5777"
       y1="14832.971"
       x2="642.57043"
       y2="14528.031" />
  </defs>
  <g
     id="layer1"
     transform="translate(-15.813553,-1.9970674)">
    <g
       id="g1451-9-3-0-4"
       transform="matrix(0.26458333,0,0,0.23118115,-945.70952,-3184.8668)">
      <g
         id="g1348-0-2-9-4">
        <g
           id="g374-7-9-2-3-3-9-8"
           transform="matrix(1.070683,0,0,0.88694868,1570.5729,431.74342)">
          <path
             style="fill:#000000;stroke:none;stroke-width:181.769;stroke-dasharray:none"
             d="m 2188.8639,15264.328 -47.3321,-0.04 -61.3793,77.851 -0.4017,-84.2 -65.8826,84.165 -0.1627,-77.78 -22.36,0.136 -0.1064,0.272 c -0.2513,0.655 -63.5083,81.875 -63.5083,81.875 0,0 -1.3825,-194.153 0.8206,-291.177 59.8676,0.137 119.7348,0.523 179.6016,0.881 -22.4168,29.283 -46.4174,57.394 -68.2505,87.118 13.2478,17.082 26.6039,34.082 39.9293,51.104 l 0.1699,-18.368 c 0,0 28.6614,-37.502 43.8951,-55.957 0.3081,0 40.6551,52.195 41.1103,52.159 0.4435,0 36.0903,-46.042 36.3582,-46.07 0.2776,0 65.3246,82.851 65.3246,82.851 l 65.6293,-83.964 c -23.8421,-0.182 -113.1959,-0.182 -113.1959,-0.182 l -50.3795,-64.392 255.7967,-0.272 v 53.267 l -13.2023,15.987 c 0,0 45.864,58.338 45.864,58.689 5.6325,0.822 11.9119,0.363 17.7549,0.318 10.8806,-13.797 21.5036,-27.807 32.5778,-41.448 0.2299,0 55.9759,71.231 55.9759,71.231 v 66.041 h -43.2262 l -0.1627,78.543 -32.982,-42.28 h -54.4362 c 0,0 -39.0446,-49.932 -39.2617,-49.932 -0.2186,0 -23.4308,29.301 -23.6067,29.796 9.0924,0.514 27.3821,0.318 27.3821,0.318 l 50.6386,64.202 c -125.5256,0.363 -258.5713,0.636 -258.5713,0.636 z m 101.1705,34.763 c 0.7063,-0.955 9.8606,-12.569 20.343,-25.806 12.1074,-15.288 18.9715,-24.212 18.8193,-24.462 -0.5875,-0.959 -5.6359,-7.23 -5.8096,-7.217 -0.2122,0 -45.9176,58.458 -46.0909,58.935 -0.062,0.181 2.3339,0.272 5.6737,0.272 h 5.7804 z m 91.8993,-116.414 11.8667,-15.041 v -7.853 c 0,-4.317 -0.1241,-7.852 -0.2763,-7.852 -9.9288,12.07 -19.3046,24.589 -28.9335,36.904 l -0.9388,1.194 2.9862,3.836 c 1.6424,2.109 3.0858,3.839 3.2076,3.844 0.1218,0 5.5614,-6.757 12.088,-15.032 z"
             id="path374-1-0-8-1-4-9-9" />
          <g
             id="g2">
            <g
               id="g332-6-8-3-8-4-7-6"
               style="stroke:url(#linearGradient1035)"
               transform="translate(1633.8658,531.80845)">
              <path
                 d="m 567.43128,14626.531 -35.90812,45.905 v 39.91 l 43.09097,0.668 c 0,0 0.0332,26.615 0.043,39.924 l 45.79197,-58.627 z m 0,39.181 18.02315,23.043 -35.62216,-0.543 z"
                 style="mix-blend-mode:normal;fill:#223681;fill-opacity:1;stroke:url(#linearGradient1026);stroke-width:8.923;stroke-linecap:square;stroke-linejoin:miter;stroke-miterlimit:10;stroke-dasharray:none;stroke-opacity:1;paint-order:stroke fill markers"
                 id="path323-2-5-6-7-6-3-6-7-5-7-4-2-9-4-0-9-5-4" />
              <path
                 d="m 392.40666,14626.531 -35.90811,45.905 v 39.91 l 43.10369,0.672 c 0,0 0.0236,26.613 0.034,39.92 l 45.79004,-58.631 z m 0,39.181 18.02507,23.043 -35.62408,-0.543 z"
                 style="mix-blend-mode:normal;fill:#223681;fill-opacity:1;stroke:url(#linearGradient1);stroke-width:8.923;stroke-linecap:square;stroke-linejoin:miter;stroke-miterlimit:10;stroke-dasharray:none;stroke-opacity:1;paint-order:stroke fill markers"
                 id="path321-5-7-0-1-0-3-3-8-9-3-5-9-2-8-7-3-1-1" />
              <path
                 id="path311-7-4-1-0-5-7-0-2"
                 style="fill:#223681;stroke:url(#linearGradient1028);stroke-width:8.923;stroke-linecap:square;stroke-miterlimit:10;paint-order:stroke fill markers"
                 d="m 575.15936,14548.429 19.58203,24.98 h 144.46484 l -85.59179,109.568 -78.45508,100.43 c -0.0146,10.184 0,30.561 0,30.561 l 197.81836,-0.475 -19.33008,-24.516 h -30.40039 -68.27344 -30.30664 -0.002 -22.4961 l 67.24219,-85.951 49.02539,-62.674 -0.13281,-0.109 52.27344,-66.828 0.0312,-0.03 -0.002,-24.957 z" />
              <g
                 id="g331-0-59-1-2-0-6-7"
                 style="stroke:url(#linearGradient2)"
                 transform="translate(11.351257,-0.40595939)">
                <path
                   d="m 862.09374,14647.679 -53.01772,67.778 45.79196,58.628 0.021,-39.924 43.11302,-0.668 v -39.909 z m 0,39.181 17.59901,22.499 -35.62215,0.543 z"
                   style="mix-blend-mode:normal;fill:#223681;fill-opacity:1;stroke:url(#linearGradient1029);stroke-width:8.923;stroke-linecap:square;stroke-linejoin:miter;stroke-miterlimit:10;stroke-dasharray:none;stroke-opacity:1;paint-order:stroke fill markers"
                   id="path319-3-2-7-1-9-2-8-9-4-8-9-0-0-6-1-0-9-3" />
                <path
                   d="m 768.06592,14633.018 v 99.754 0.03 l 28.86618,36.673 h 30.8028 l -35.98539,-44.816 c 0,0 0,-11.5 0,-17.25 l 23.75,-30.251 -23.75,-0.04 v -14.039 z"
                   style="fill:#223681;stroke:url(#linearGradient1030);stroke-width:8.923;stroke-linecap:square;stroke-miterlimit:10;paint-order:stroke fill markers"
                   id="path310-2-3-6-4-5-9-3-8" />
              </g>
              <path
                 d="m 693.12671,14643.997 v 38.406 l 0.28515,0.365 15.78907,20.032 7.60351,9.644 3.85742,4.899 -6.23632,7.918 -6.01563,7.629 h 0.002 l -11.49218,14.513 h 0.0137 l -17.39844,22.072 h 30.30664 l 13.70508,-17.382 4.38672,-5.565 h -0.0312 l 1.66015,-2.06 9.1211,-11.576 6.01562,-7.629 0.0625,-0.03 16.30078,-20.677 v -29.582 -8.825 l -25.24218,32.022 -11.54102,-14.645 -15.79687,-20.049 z"
                 style="fill:#223681;stroke:url(#linearGradient1032);stroke-width:8.923;stroke-linecap:square;stroke-miterlimit:10;paint-order:stroke fill markers"
                 id="path298-4-0-8-1-7-2-9-6" />
              <path
                 d="m 489.94795,14620.477 -23.97648,30.652 v 101.809 l 23.97648,-30.653 v -62.463 l 0.0921,0.119 c 7.45953,9.536 14.92009,19.071 22.37781,28.608 0.1297,-12.986 0.0572,-26.091 0.0484,-39.122 z"
                 style="mix-blend-mode:normal;fill:#223681;fill-opacity:1;stroke:url(#linearGradient1033);stroke-width:8.923;stroke-linecap:square;stroke-linejoin:miter;stroke-miterlimit:10;stroke-dasharray:none;stroke-opacity:1;paint-order:stroke fill markers"
                 id="path317-8-8-4-8-3-1-6-9-0-7-1-6-7-2-5-4-8-0" />
              <path
                 id="path423-5-3-5-4-0-3-5-4-7-2-4-8-3-9-5-7-3"
                 style="mix-blend-mode:normal;fill:#223681;fill-opacity:1;stroke:url(#linearGradient3);stroke-width:8.923;stroke-linecap:square;stroke-linejoin:miter;stroke-miterlimit:10;stroke-dasharray:none;stroke-opacity:1;paint-order:stroke fill markers"
                 d="m 314.31186,14543.562 -0.58374,111.931 v 39.184 62.625 l 23.9771,-30.651 0.13864,-61.244 95.69315,-121.253 z m 27.8389,26.238 38.84057,0.193 -39.03211,47.116 z" />
            </g>
            <path
               id="path1118-3-8-8-1"
               style="opacity:1;fill:#000000;stroke-width:0.513086;stroke-linecap:square;stroke-miterlimit:20;paint-order:markers fill stroke"
               d="m 2319.6566,15141.71 -6.852,8.699 -0.1204,5.726 v 47.043 17.583 l 10.0148,12.765 15.7464,20.075 7.2712,-8.313 -23.0176,-29.343 v -52.922 l 39.7235,50.641 7.273,-8.311 z" />
          </g>
        </g>
      </g>
    </g>
  </g>
</svg>
